# xmcd CD database file generated by OrangeCD 5.2
#
# Track frame offsets:
#	150
#	15240
#	31040
#	46320
#	62627
#	77907
#	96195
#	112312
#	127687
#	147677
#	164217
#	181510
#	195507
#	210187
#
# Disc length: 2999 seconds
#
# Revision: 0
# Processed by: cddbd v1.5.1PL0 Copyright (c) Steve Scherf et al.
# Submitted via: OrangeCD 5.2
#
DISCID=b40bb50e
DTITLE=Anne Grete Øren - Et annet sted
DYEAR=2004
DGENRE=Country
TTITLE0=Veien hjem
TTITLE1=Endeløs natt
TTITLE2=Svunnen tid
TTITLE3=To hjerter i brann
TTITLE4=En dans på roser
TTITLE5=Gaven
TTITLE6=Rette si'a av by'n
TTITLE7=Vårens første blomster
TTITLE8=Livets store øyeblikk
TTITLE9=Utepils, sommer og sol
TTITLE10=Fri
TTITLE11=Slankekuren
TTITLE12=Bare 13 år
TTITLE13=Et annet sted
EXTD=
EXTT0=
EXTT1=
EXTT2=
EXTT3=
EXTT4=
EXTT5=
EXTT6=
EXTT7=
EXTT8=
EXTT9=
EXTT10=
EXTT11=
EXTT12=
EXTT13=
PLAYORDER=
